<svg xmlns="http://www.w3.org/2000/svg" data-name="Layer 1" viewBox="0 0 24 24">
  <path d="M19.2 8h-3l.38-.14a3.29 3.29 0 0 0 1.1-5.47 3.28 3.28 0 0 0-5.38 1.47L12 5l-.33-1.12a3.27 3.27 0 0 0-6.35 1.55 3.25 3.25 0 0 0 2.06 2.43l.39.14h-3A2.81 2.81 0 0 0 2 10.8v8.4A2.81 2.81 0 0 0 4.8 22h14.4a2.81 2.81 0 0 0 2.8-2.8v-8.4A2.81 2.81 0 0 0 19.2 8m-4.95-3.57a1.23 1.23 0 0 1 .88-.87 1.1 1.1 0 0 1 .35-.05A1.27 1.27 0 0 1 16.72 5a1.24 1.24 0 0 1-.8.94l-2.39.89ZM7.28 5a1.27 1.27 0 0 1 1.24-1.49 1.1 1.1 0 0 1 .35.05 1.23 1.23 0 0 1 .88.87l.72 2.44L8.08 6a1.24 1.24 0 0 1-.8-1M20 19.2a.8.8 0 0 1-.8.8H4.8a.8.8 0 0 1-.8-.8V14h16Zm0-7.2H4v-1.2a.8.8 0 0 1 .8-.8h14.4a.8.8 0 0 1 .8.8Z"/>
</svg>
